<?xml version="1.0" encoding="utf-8"?>
<!-- Generator: Adobe Illustrator 26.0.3, SVG Export Plug-In . SVG Version: 6.00 Build 0)  -->
<svg version="1.1" id="Layer_1"
	 xmlns="http://www.w3.org/2000/svg" xmlns:xlink="http://www.w3.org/1999/xlink" x="0px" y="0px" viewBox="0 0 1920 1080"
	 style="enable-background:new 0 0 1920 1080;" xml:space="preserve">
<style type="text/css">
	.st0{fill:#7289DA;}
	.st1{fill:#FEFEFF;}
	.st2{fill:#F9FAFD;}
	.st3{fill:#FFFFFF;}
	.st4{font-family:'Arial-BoldMT';}
	.st5{font-size:422.0064px;}
</style>
<circle class="st0" cx="341.8" cy="540" r="326.7"/>
<circle class="st1" cx="341.8" cy="540" r="225.8"/>
<path class="st0" d="M341.8,351.7c247,4.3,247,371.6,0,375.9C94.7,723.3,94.8,356,341.8,351.7z"/>
<path class="st2" d="M401.9,534.7c4.1,2.4,4.1,8.3,0,10.6c0,0-102.1,59-102.1,59c-4.1,2.4-9.2-0.6-9.2-5.3
	C295.5,435.9,258.5,457.5,401.9,534.7z"/>
<g transform="matrix(10.0544,0,0,10.0544,-4614.58,-2607.36)">
	<text transform="matrix(9.945894e-02 0 0 9.945894e-02 538.7382 328.5363)" class="st3 st4 st5">Cider</text>
</g>
</svg>
